<svg xmlns="http://www.w3.org/2000/svg" xmlns:xlink="http://www.w3.org/1999/xlink" version="1.1" x="0px" y="0px" viewBox="-247 370.9 100 125" style="enable-background:new -247 370.9 100 100;" xml:space="preserve"><g><path d="M-199.4,426.5c1.1-1.1,3-1.1,4.1,0c0.3,0.3,0.7,0.4,1.1,0.4c0.4,0,0.8-0.1,1.1-0.4c0.6-0.6,0.6-1.5,0-2.1   c-1.1-1.1-2.6-1.7-4.2-1.7c-1.6,0-3.1,0.6-4.2,1.7c-0.6,0.6-0.6,1.5,0,2.1C-200.9,427-200,427-199.4,426.5z"/><path d="M-191.2,430h-11.5c-0.8,0-1.5,0.7-1.5,1.5c0,3.8,3.3,6.9,7.3,6.9s7.3-3.1,7.3-6.9C-189.7,430.7-190.3,430-191.2,430z    M-196.9,435.4c-1.8,0-3.3-1-3.9-2.4h7.8C-193.6,434.4-195.2,435.4-196.9,435.4z"/><path d="M-208,411.1c-1.7,0-3.3,0.7-4.5,1.9c-0.6,0.6-0.6,1.5,0,2.1s1.5,0.6,2.1,0c0.4-0.4,0.9-0.7,1.5-0.8c-0.6,0.3-1,0.9-1,1.6   c0,1,0.8,1.8,1.8,1.8s1.8-0.8,1.8-1.8c0-0.7-0.4-1.3-0.9-1.6c0.5,0.1,1.1,0.4,1.5,0.8c0.3,0.3,0.7,0.4,1.1,0.4   c0.4,0,0.8-0.1,1.1-0.4c0.6-0.6,0.6-1.5,0-2.1C-204.7,411.7-206.3,411.1-208,411.1z"/><path d="M-186,411.1c-1.7,0-3.3,0.7-4.5,1.9c-0.6,0.6-0.6,1.5,0,2.1s1.5,0.6,2.1,0c0.4-0.4,0.9-0.7,1.5-0.8c-0.6,0.3-1,0.9-1,1.6   c0,1,0.8,1.8,1.8,1.8s1.8-0.8,1.8-1.8c0-0.7-0.4-1.3-1-1.6c0.5,0.1,1.1,0.4,1.5,0.8c0.3,0.3,0.7,0.4,1.1,0.4c0.4,0,0.8-0.1,1.1-0.4   c0.6-0.6,0.6-1.5,0-2.1C-182.8,411.7-184.3,411.1-186,411.1z"/><path d="M-178.1,457.5v4.7c0,1,0.7,1.9,1.7,2.1c1.2,0.2,2.3-0.8,2.3-2v-4.8c0-0.6,0.5-1,1.1-1l0,0c0.6,0,1.1,0.5,1,1.1v2.7   c0,1,0.7,1.9,1.7,2.1c1.2,0.2,2.3-0.8,2.3-2c0,0,0-13.5,0-13.6c1.2-1.3,2.1-3,2.1-4.9v-36c0-15.7-12.8-28.5-28.5-28.5h-5.2   c-15.7,0-28.5,12.8-28.5,28.5v35.9c0,1.9,0.7,3.6,1.9,4.9c0,0.1,0,13.6,0,13.6c0,1,0.7,1.9,1.7,2.1c1.2,0.2,2.3-0.8,2.3-2v-2.8   c0-0.6,0.5-1,1-1l0,0c0.6,0,1,0.5,1,1v4.7c0,1,0.7,1.9,1.7,2.1c1.2,0.2,2.3-0.8,2.3-2v-4.8c0-0.6,0.5-1,1.1-1l0,0   c0.6,0,1.1,0.5,1.1,1.1v2.7c0,1,0.7,1.9,1.7,2.1c1.2,0.2,2.3-0.8,2.3-2v-13.2l0,0v-4.1c1.7,1.8,5.3,5,8.6,5h8.6   c3.3,0,6.8-3.1,8.6-4.9v4l0,0l0,0v3.7v1v8.4c0,1,0.7,1.9,1.7,2.1c1.2,0.2,2.3-0.8,2.3-2v-2.8c0-0.6,0.5-1,1-1l0,0   C-178.6,456.4-178.1,456.9-178.1,457.5z M-175.2,431.8c1.4-1.8,2.2-4.1,2.2-6.5v-2.8c1.1-0.2,2.2-0.6,3-1.2v20.4   c0,1.9-1.5,3.4-3.4,3.4h-6c-0.4,0-0.8-0.4-0.8-0.8V440c0-1.2,0.4-2.3,1.1-3.2L-175.2,431.8z M-186,407c-2.8,0-5.9,0.5-7.9,1.7   c-0.8-0.8-1.9-1.2-3-1.2s-2.2,0.4-3,1.2c-2-1.2-5.1-1.7-7.9-1.7c-3.5,0-7.4,0.7-9.1,2.7v-11.6c1.6,0.4,3.2,0.7,4.8,0.7   c6.9,0,12.9-4,15.8-9.8c2.7,5.8,8.7,9.8,15.6,9.8c1.3,0,2.5-0.1,3.7-0.4v11.3C-178.7,407.7-182.6,407-186,407z M-179,412   c0,3.9-3.2,7-7,7c-3.8,0-7-3.2-7-7c0-0.7,2.4-2,7-2c2,0,4,0.3,5.4,0.8C-179.5,411.2-179,411.7-179,412z M-200.9,412   c0,3.9-3.2,7-7,7c-3.8,0-7-3.2-7-7c0-0.7,2.4-2,7-2c2,0,4,0.3,5.4,0.8C-201.4,411.2-200.9,411.7-200.9,412z M-214.8,445.1h-5.9   c-1.9,0-3.4-1.5-3.4-3.4v-20.4c0.9,0.6,1.9,1.1,3,1.2v2.7c0,2.3,0.8,4.7,2.2,6.5l3.8,4.9c0.7,0.9,1.1,2,1.1,3.2v4.5   C-214,444.7-214.4,445.1-214.8,445.1z M-221.1,418.5c-1.1-0.4-1.9-1.5-1.9-2.7s0.8-2.3,1.9-2.7V418.5z M-172.9,413.1   c1.1,0.4,1.9,1.5,1.9,2.7s-0.8,2.3-1.9,2.7V413.1z M-169.9,410.2c-0.9-0.6-1.9-1.1-3-1.2v-12c0.4-0.2,1-0.5,1.2-0.6   c1.2,2.9,1.9,6.1,1.9,9.4L-169.9,410.2L-169.9,410.2z M-173.6,392.8c-0.1,0.1-0.2,0.1-0.2,0.1c-2.1,1.2-4.4,1.8-6.8,1.8   c-7.5,0-13.5-6-13.7-13.5C-185.6,381.3-178,385.9-173.6,392.8z M-199.6,381.3h1c-0.1,7.5-6.2,13.5-13.7,13.5   c-2.8,0-5.5-0.8-7.8-2.4l0,0C-215.7,385.7-208.1,381.3-199.6,381.3z M-222,395.9c0.3,0.2,0.6,0.4,0.9,0.6V409   c-1.1,0.2-2.2,0.6-3,1.2v-4.4C-224.1,402.3-223.3,398.9-222,395.9z M-214.5,452.4h-7.1c-0.3,0-0.6-0.3-0.6-0.6v-1v-1.1   c0-0.3,0.3-0.6,0.6-0.6h7.1c0.3,0,0.6,0.3,0.6,0.6v1.1v1C-213.9,452.2-214.2,452.4-214.5,452.4z M-186.1,439.3   c-1.3,1.5-4.6,4.7-6.6,4.7h-8.6c-1.8,0-5-2.8-6.6-4.7l-7.8-10c-0.9-1.1-1.4-2.6-1.4-4v-9.1c1.6,3.4,5.1,5.8,9.1,5.8   c5.5,0,10-4.5,10-10c0-0.4-0.1-0.7-0.2-1.1c0,0,0.6-0.4,1.1-0.4s1,0.3,1.1,0.4c-0.1,0.3-0.2,0.7-0.2,1.1c0,5.5,4.5,10,10,10   c4,0,7.5-2.4,9.1-5.8v9.1c0,1.5-0.5,2.9-1.4,4L-186.1,439.3z M-172.4,452.4h-7.1c-0.3,0-0.6-0.3-0.6-0.6v-2.1   c0-0.3,0.3-0.6,0.6-0.6h7.1c0.3,0,0.6,0.3,0.6,0.6v2.1C-171.8,452.1-172.1,452.4-172.4,452.4z"/></g><text x="-247" y="485.9" fill="#000000" font-size="5px" font-weight="bold" font-family="'Helvetica Neue', Helvetica, Arial-Unicode, Arial, Sans-serif">Created by Fuat şanlı</text><text x="-247" y="490.9" fill="#000000" font-size="5px" font-weight="bold" font-family="'Helvetica Neue', Helvetica, Arial-Unicode, Arial, Sans-serif">from the Noun Project</text></svg>