<svg xmlns="http://www.w3.org/2000/svg" xmlns:xlink="http://www.w3.org/1999/xlink" version="1.1" x="0px" y="0px" viewBox="0 0 100 125" style="enable-background:new 0 0 100 100;" xml:space="preserve"><g><path d="M44.5,49.1c0.5-0.6,0.4-1.4-0.1-1.9c-0.9-0.8-2.2-1.2-3.5-1.2c-1.3,0-2.5,0.4-3.5,1.2c-0.6,0.5-0.6,1.3-0.1,1.9   c0.3,0.3,0.6,0.5,1,0.5c0.3,0,0.6-0.1,0.9-0.3c0.9-0.7,2.6-0.7,3.4,0C43.1,49.7,44,49.7,44.5,49.1z"/><path d="M60.8,49.3c0.6,0.5,1.4,0.4,1.9-0.1c0.5-0.6,0.4-1.4-0.1-1.9c-0.9-0.8-2.2-1.2-3.5-1.2c-1.3,0-2.5,0.4-3.5,1.2   c-0.6,0.5-0.6,1.3-0.1,1.9c0.3,0.3,0.6,0.5,1,0.5c0.3,0,0.6-0.1,0.9-0.3C58.3,48.5,60,48.5,60.8,49.3z"/><path d="M84.2,84.8c-8.6-19.9-7.7-47.8-7.6-48.2c0-13.6-10.9-23.9-25.3-23.9h-2.6c-14.4,0-25.3,10.3-25.3,24c0,0.3,1,28.1-7.6,48.1   c-0.2,0.6-0.2,1.2,0.1,1.7c0.3,0.5,0.9,0.8,1.5,0.8h23.6c1,0,1.8-0.8,1.8-1.8v-7.1c1.1,0.6,2.2,1,3.4,1h7.4c1.2,0,2.3-0.4,3.4-1   v7.1c0,1,0.8,1.8,1.8,1.8h23.6c0.6,0,1.2-0.3,1.5-0.8C84.4,86,84.4,85.3,84.2,84.8z M46.3,75.8c-1.6,0-4.3-2.4-5.6-4l-6.8-8.7   c-0.8-1-1.2-2.2-1.2-3.5V37l9.1-3.1l-0.9,2.1c-0.3,0.7-0.1,1.5,0.4,2c0.6,0.5,1.4,0.6,2.1,0.2l7.3-4.1L50.4,37   c-0.1,0.6,0.2,1.2,0.7,1.6c0.5,0.4,1.2,0.5,1.7,0.3l14.4-5.4v26.2c0,1.2-0.4,2.5-1.2,3.4l-6.7,8.6c-1.4,1.6-4.1,4.1-5.7,4.1H46.3z    M75.7,83.7v-4.3c0-0.7-0.6-1.3-1.3-1.3c-0.7,0-1.3,0.6-1.3,1.3v4.3h-2v-7.3c0-0.7-0.6-1.3-1.3-1.3c-0.7,0-1.3,0.6-1.3,1.3v7.3   h-2.1v-6.1c0-0.7-0.6-1.3-1.3-1.3c-0.7,0-1.3,0.6-1.3,1.3v6.1h-2.8v-7.8c0-0.1,0-0.2,0-0.3c0.7-0.7,1.3-1.4,1.5-1.6l6.7-8.7   c1.2-1.6,1.9-3.6,1.9-5.7V30.8c0-0.6-0.3-1.1-0.8-1.5c-0.5-0.3-1.1-0.4-1.7-0.2l-14.1,5.3l0.4-3.4c0.1-0.7-0.2-1.3-0.8-1.7   c-0.6-0.4-1.3-0.4-1.9-0.1l-5.8,3.2l0.4-0.9c0.3-0.7,0.1-1.4-0.3-1.9c-0.5-0.5-1.2-0.7-1.9-0.5L30.3,34c-0.7,0.2-1.2,0.9-1.2,1.7   v24c0,2,0.7,4.1,1.9,5.7l6.8,8.7c0.2,0.3,0.7,0.9,1.5,1.6c0,0.1,0,0.2,0,0.3v7.8h-3.4v-4.3c0-0.7-0.6-1.3-1.3-1.3   c-0.7,0-1.3,0.6-1.3,1.3v4.3h-2v-7.3c0-0.7-0.6-1.3-1.3-1.3c-0.7,0-1.3,0.6-1.3,1.3v7.3h-2.1v-6.1c0-0.7-0.6-1.3-1.3-1.3   c-0.7,0-1.3,0.6-1.3,1.3v6.1h-3.5c7.8-20.3,7-46,6.9-47.1c0-11.6,9.3-20.3,21.7-20.3h2.6C63.7,16.3,73,25,73,36.6   c0,1.1-0.9,26.8,6.9,47.1H75.7z"/><path d="M69.7,69.4c-0.7,0-1.3,0.6-1.3,1.3v2c0,0.7,0.6,1.3,1.3,1.3c0.7,0,1.3-0.6,1.3-1.3v-2C71,70,70.4,69.4,69.7,69.4z"/><path d="M28.5,70.7v2c0,0.7,0.6,1.3,1.3,1.3c0.7,0,1.3-0.6,1.3-1.3v-2c0-0.7-0.6-1.3-1.3-1.3C29.1,69.4,28.5,70,28.5,70.7z"/><path d="M55.8,62.2H44.1c-0.7,0-1.3,0.6-1.3,1.3c0,3.8,3.2,6.8,7.2,6.8c4,0,7.2-3.1,7.2-6.8C57.2,62.8,56.6,62.2,55.8,62.2z    M50,67.7c-2,0-3.6-1.2-4.3-2.8h8.5C53.6,66.6,52,67.7,50,67.7z"/><path d="M43.7,42.1c0.6-0.1,1.2,0,1.7,0.5c0.8,0.6,1.2,1.7,1.2,2.8v10.8c0,1.9,1.4,3.5,3.3,3.6c0.1,0,0.2,0,0.3,0   c0.9,0,1.8-0.4,2.5-1c0.5-0.5,0.5-1.4,0-1.9c-0.5-0.5-1.4-0.5-1.9,0c-0.1,0.1-0.3,0.3-0.7,0.2c-0.4,0-0.8-0.5-0.8-0.9V45.3   c0-1.9-0.8-3.8-2.2-4.9c-1.1-0.9-2.5-1.3-3.9-1.1c-0.7,0.1-1.2,0.8-1.1,1.6C42.2,41.7,43,42.2,43.7,42.1z"/></g></svg>