<svg xmlns="http://www.w3.org/2000/svg" xmlns:xlink="http://www.w3.org/1999/xlink" version="1.1" x="0px" y="0px" viewBox="0 0 100 125" style="enable-background:new 0 0 100 100;" xml:space="preserve"><g><circle cx="34.6" cy="25.3" r="1.2"/><circle cx="39.3" cy="25.3" r="1.2"/><circle cx="44" cy="25.3" r="1.2"/><circle cx="48.7" cy="25.3" r="1.2"/><circle cx="53.4" cy="25.3" r="1.2"/><circle cx="58.1" cy="25.3" r="1.2"/><circle cx="35.1" cy="31.9" r="1.2"/><circle cx="39.6" cy="31.9" r="1.2"/><circle cx="30.6" cy="31.9" r="1.2"/><circle cx="44.1" cy="31.9" r="1.2"/><circle cx="48.6" cy="31.9" r="1.2"/><circle cx="53.1" cy="31.9" r="1.2"/><circle cx="57.6" cy="31.9" r="1.2"/><circle cx="62.1" cy="31.9" r="1.2"/><circle cx="37.8" cy="21.9" r="1.2"/><circle cx="42" cy="21.9" r="1.2"/><circle cx="46.3" cy="21.9" r="1.2"/><circle cx="50.5" cy="21.9" r="1.2"/><circle cx="54.7" cy="21.9" r="1.2"/><circle cx="37" cy="28.6" r="1.2"/><circle cx="41.7" cy="28.6" r="1.2"/><circle cx="32.3" cy="28.6" r="1.2"/><circle cx="46.4" cy="28.6" r="1.2"/><circle cx="51.1" cy="28.6" r="1.2"/><circle cx="55.8" cy="28.6" r="1.2"/><circle cx="60.5" cy="28.6" r="1.2"/><circle cx="35.9" cy="47.2" r="2"/><circle cx="56.7" cy="47.2" r="2"/><path d="M49.7,65.9h-6.8c-0.8,0-1.5,0.7-1.5,1.5s0.7,1.5,1.5,1.5h6.8c0.8,0,1.5-0.7,1.5-1.5S50.5,65.9,49.7,65.9z"/><path d="M78.1,47.2v-0.5c0-4.3-3.4-7.7-7.7-7.7v-1.3c0-13.3-10.8-24.1-24.1-24.1S22.2,24.3,22.2,37.6v1.3c-4.2,0-7.7,3.5-7.7,7.7   v5.2c0,4.3,3.4,7.7,7.7,7.7v4.2c0,2.3,0.8,4.6,2.2,6.5l7.8,10.1c0.5,0.6,5.2,6.2,9.7,6.2h8.6c4.5,0,9.2-5.5,9.8-6.2l7.8-10   c1.4-1.8,2.2-4.1,2.2-6.5v-4.2c0.4,0,0.8,0,1.1-0.1c1.4,1.9,3.7,3.2,6.2,3.2c4.3,0,7.7-3.5,7.7-7.7C85.4,50.8,82.2,47.4,78.1,47.2z    M46.3,17.5c11.1,0,20.1,9,20.1,20.1v18.8L51.9,74.9c-1.6-1.1-3.6-1.8-5.6-1.8c-2,0-4,0.6-5.6,1.8L26.2,56.4V38.1   c5.4,0.2,9.4,1.7,12.1,4.6c3.1,3.4,4.3,8.5,3.6,15.3l0,0.1c0,0.3,0,0.7,0.2,1c0.9,1.4,2.6,2.3,4.2,2.3c1.5,0,3.1-0.8,4-2   c0.5-0.7,0.4-1.6-0.3-2.1c-0.7-0.5-1.6-0.4-2.1,0.3c-0.4,0.5-1.1,0.8-1.6,0.8c-0.5,0-1-0.2-1.4-0.6c0.7-7.4-0.8-13.2-4.4-17.1   c-3.2-3.5-8-5.4-14.1-5.6C27.6,25.2,36.1,17.5,46.3,17.5z M18.6,51.8v-5.2c0-2,1.7-3.7,3.7-3.7v12.7C20.2,55.6,18.6,53.9,18.6,51.8   z M65,67.8l-7.7,10c-1.3,1.5-4.6,4.7-6.6,4.7H42c-1.8,0-5-2.8-6.6-4.7l-7.8-10c-0.9-1.1-1.4-2.6-1.4-4v-0.9L38.8,79   c0.3,0.4,0.8,0.7,1.3,0.7c0.1,0,0.3,0,0.4,0c0.6,0,1.1-0.2,1.5-0.7c1.1-1.2,2.7-1.9,4.3-1.9s3.2,0.7,4.3,1.9c0.4,0.5,1,0.7,1.6,0.7   c0,0,0,0,0,0c0,0,0,0,0,0c0.1,0,0.2,0,0.2,0c0.5-0.1,1-0.3,1.3-0.7l12.6-16.1v0.9C66.4,65.2,65.9,66.7,65,67.8z M70.4,42.9   c2,0,3.7,1.7,3.7,3.7v1.5c-1.5,0.8-2.7,2-3.4,3.6c-0.3,0.8,0,1.6,0.8,2c0.8,0.3,1.6,0,2-0.8c0.2-0.4,0.4-0.7,0.6-1   c0,2-1.7,3.6-3.7,3.6V42.9z M77.7,59.6c-1.2,0-2.4-0.5-3.2-1.3c2.1-1.4,3.6-3.8,3.6-6.5v-1.6c2.4,0.2,4.4,2.2,4.4,4.7   C82.4,57.5,80.3,59.6,77.7,59.6z"/></g></svg>