<svg xmlns="http://www.w3.org/2000/svg" xmlns:xlink="http://www.w3.org/1999/xlink" version="1.1" x="0px" y="0px" viewBox="0 0 100 125" style="enable-background:new 0 0 100 100;" xml:space="preserve"><g><path d="M55.3,69.1c-1.1,1.1-2.6,1.8-4.2,1.8c-1.6,0-3.1-0.6-4.2-1.8c-0.5-0.5-1.4-0.5-1.9,0c-0.5,0.5-0.5,1.4,0,1.9   c1.6,1.6,3.8,2.6,6.2,2.6c2.3,0,4.5-0.9,6.2-2.6c0.5-0.5,0.5-1.4,0-1.9C56.7,68.6,55.8,68.6,55.3,69.1z"/><circle cx="64.7" cy="32.3" r="0.9"/><circle cx="61.1" cy="37.1" r="0.9"/><circle cx="64.3" cy="37.1" r="0.9"/><circle cx="67.6" cy="37.1" r="0.9"/><circle cx="63.1" cy="34.7" r="0.9"/><circle cx="66.5" cy="34.7" r="0.9"/><path d="M45.4,55.2c0-0.4-0.1-0.8-0.4-1.1c0.6,0,1.3,0.2,1.8,0.4l0,8.5c0,0.4,0.1,0.7,0.4,1c1,1,2.4,1.6,3.8,1.6s2.8-0.6,3.8-1.6   c0.5-0.5,0.5-1.4,0-1.9c-0.5-0.5-1.4-0.5-1.9,0c-0.9,0.9-2.3,1-3.4,0.3l0-8.7c0-0.5-0.2-0.9-0.6-1.2c-1.2-0.8-2.8-1.2-4.5-1.2   c-1.7,0-3.3,0.4-4.5,1.2c-0.6,0.4-0.8,1.2-0.4,1.9c0.4,0.6,1.2,0.8,1.9,0.4c0.1-0.1,0.3-0.2,0.5-0.2c-0.1,0.2-0.1,0.4-0.1,0.6   c0,1,0.8,1.9,1.9,1.9C44.6,57.1,45.4,56.3,45.4,55.2z"/><path d="M62.9,52.5c-1.2-0.8-2.8-1.2-4.5-1.2c-1.7,0-3.3,0.4-4.5,1.2c-0.6,0.4-0.8,1.2-0.4,1.9c0.4,0.6,1.2,0.8,1.9,0.4   c0.6-0.4,1.5-0.6,2.4-0.7c-0.2,0.3-0.4,0.7-0.4,1.1c0,1,0.8,1.9,1.9,1.9s1.9-0.8,1.9-1.9c0-0.2,0-0.4-0.1-0.6   c0.2,0.1,0.3,0.1,0.5,0.2C61.7,55,62,55,62.2,55c0.5,0,0.9-0.2,1.2-0.6C63.8,53.8,63.6,52.9,62.9,52.5z"/><path d="M73.1,41.4C73.1,41.4,73.1,41.4,73.1,41.4l0-1.5c0-5.5-2.1-10.6-5.8-14.4c0.4-1,0.9-2.1,1.2-3.2c0.2-0.6,0.1-1.3-0.4-1.8   C67.9,20.3,51.6,2.6,27.6,21c-0.5,0.4-0.8,1-0.7,1.6c0.1,0.6,0.4,1.2,1,1.5l2.2,1.1c-3.5,2.5-9.1,7.2-9.4,11.8   c-0.1,0.9,0.5,1.7,1.4,1.9c0.3,0.1,3.1,0.8,7,1v1.4c0,0,0,0,0,0c-3.4,0-6.2,2.8-6.2,6.2v4c0,3.4,2.8,6.2,6.2,6.2c0,0,0,0,0,0v8.7   c0,2.1,0.7,4.3,2,5.9l7.2,9.2c0.5,0.6,4.8,5.6,8.9,5.6H55c4.1,0,8.4-5.1,8.9-5.7l7.1-9.2c1.3-1.7,2-3.8,2-5.9v-8.7c0,0,0,0,0,0   c3.4,0,6.2-2.8,6.2-6.2v-4C79.3,44.2,76.5,41.4,73.1,41.4z M34.6,26.6c0.6-0.3,0.9-1,0.9-1.6c0-0.7-0.4-1.3-1-1.6l-2.3-1.2   c17.5-11.9,29.4-2.8,32.4,0C60.3,34,52,37.7,47.5,38.8c0.4-1.8,0.5-3.7,0.5-4.5c0-0.7-0.4-1.3-1-1.7c-0.3-0.1-0.6-0.2-0.9-0.2   c-0.4,0-0.7,0.1-1.1,0.3c-6.7,4.7-16.4,3.7-20.4,3C26.3,32.6,31.3,28.6,34.6,26.6z M29,54.2c-1.4,0-2.6-1.2-2.6-2.6v-4   c0-1.4,1.2-2.6,2.6-2.6c0,0,0,0,0,0L29,54.2C29.1,54.2,29.1,54.2,29,54.2z M69.4,66.6c0,1.3-0.4,2.6-1.3,3.7l-7.1,9.1   c-1.5,1.8-4.4,4.3-6.1,4.3h-2.6v-3.4c1.1-0.2,2.1-0.7,2.8-1.3c0.6-0.5,0.6-1.4,0.1-1.9c-0.5-0.6-1.4-0.6-1.9-0.1   c-0.4,0.3-1.2,0.7-2.1,0.7c-0.1,0-0.2,0-0.3,0c-0.1,0-0.2,0-0.2,0c-0.9-0.1-1.8-0.4-2.1-0.8c-0.5-0.5-1.4-0.5-1.9,0   c-0.5,0.5-0.5,1.4,0,1.9c0.7,0.7,1.7,1.2,2.9,1.4v3.5h-2.6c-1.7,0-4.5-2.5-6-4.3L34,70.3c-0.8-1-1.3-2.4-1.3-3.7V40   c3.6-0.1,7.6-0.7,11.3-2.4c-0.2,1.1-0.5,1.9-0.8,2.3c-0.5,0.5-0.6,1.3-0.3,2c0.3,0.6,0.9,1,1.7,1c0,0,0,0,0.1,0   c0.2,0,4.4-0.2,9.5-2.9c3.5-1.8,7.9-5.2,11.3-11.1c2.5,3,3.9,6.8,3.9,10.9V66.6z M75.7,51.6c0,1.4-1.2,2.6-2.6,2.6c0,0,0,0,0,0   v-9.1c0,0,0,0,0,0c1.4,0,2.6,1.2,2.6,2.6V51.6z"/></g></svg>