<svg xmlns="http://www.w3.org/2000/svg" xmlns:xlink="http://www.w3.org/1999/xlink" version="1.1" x="0px" y="0px" viewBox="0 0 100 125" style="enable-background:new 0 0 100 100;" xml:space="preserve"><g><circle cx="40.5" cy="56.3" r="1.7"/><circle cx="59.3" cy="56.3" r="1.7"/><path d="M50,66.9c1.3,0,2.7-0.7,3.5-1.8c0.5-0.6,0.3-1.5-0.3-2c-0.6-0.5-1.5-0.3-2,0.3c-0.3,0.3-0.8,0.6-1.2,0.6   c-0.4,0-1-0.3-1.2-0.6c-0.3-0.4-0.7-0.7-1.2-0.7c-0.8,0-1.4,0.6-1.4,1.4c0,0.3,0.1,0.6,0.2,0.8C47.1,66.1,48.6,66.9,50,66.9z"/><path d="M57,70.6c-1.9,1.9-4.4,2.9-7.1,2.9s-5.2-1-7.1-2.9c-0.6-0.6-1.5-0.6-2,0c-0.6,0.6-0.6,1.5,0,2c2.4,2.4,5.7,3.8,9.1,3.8   s6.7-1.3,9.1-3.8c0.6-0.6,0.6-1.5,0-2C58.5,70,57.6,70,57,70.6z"/><path d="M71.8,22.1c-6.1-5.8-14.1-8.9-22.6-8.7c-17.4,0.4-31.2,15-30.8,32.4c0.2,6.9,2.6,13.5,6.8,18.8c0.2,0.2,0.4,0.5,0.6,0.7   c1.4,1.6,2.9,3.1,4.5,4.4c0.5,1.6,1.2,3.1,2.2,4.4l5.6,7.2c0.7,0.9,4.5,5.2,8.2,5.2h7.1c3.7,0,7.5-4.3,8.3-5.2l5.5-7.1   c1-1.3,1.7-2.7,2.2-4.3c0,0,0,0,0,0c7.8-6.1,12.3-15.7,12.1-25.7C81.4,35.8,77.9,28,71.8,22.1z M49.3,17.3   c7.4-0.2,14.5,2.5,19.8,7.6c5.4,5.1,8.4,12,8.6,19.4c0.1,4.2-0.7,8.2-2.3,11.8c-0.7-2.4-2.8-4.2-5.4-4.3V41.6c0-2.1-1.1-4-2.8-5.1   c-1.8-1.1-4-1.2-5.9-0.3c-6.9,3.3-15.9,3.3-22.8,0c-1.9-0.9-4.1-0.8-5.9,0.3c-1.8,1.1-2.8,3-2.8,5.1v10.2c-2.5,0.1-4.6,1.8-5.4,4.1   c-1.4-3.2-2.1-6.6-2.2-10.2C21.8,30.4,34,17.7,49.3,17.3z M60.9,48.4c-3.8,0-6.9,2.7-7.6,6.3c-2.1-1-4.5-1-6.6,0   c-0.7-3.6-3.9-6.3-7.6-6.3c-2.1,0-4,0.8-5.4,2.2v-9c0-0.8,0.4-1.5,1-1.9c0.4-0.2,0.8-0.4,1.2-0.4c0.3,0,0.7,0.1,1,0.2   c7.9,3.8,18.2,3.8,26.1,0c0.7-0.4,1.5-0.3,2.2,0.1c0.7,0.4,1,1.1,1,1.9v9C64.8,49.2,62.9,48.4,60.9,48.4z M65.8,56.2   c0,2.7-2.2,4.9-4.9,4.9c-2.7,0-4.9-2.2-4.9-4.9s2.2-4.9,4.9-4.9C63.6,51.3,65.8,53.5,65.8,56.2z M43.9,56.2c0,2.7-2.2,4.9-4.9,4.9   c-2.7,0-4.9-2.2-4.9-4.9s2.2-4.9,4.9-4.9C41.7,51.3,43.9,53.5,43.9,56.2z M28,61.3v-3.6c0-1.1,0.8-1.9,1.8-2v7.7   c-0.5-0.1-0.9-0.3-1.2-0.6c-0.1-0.1-0.2-0.2-0.3-0.4C28.1,62.1,28,61.7,28,61.3z M70,55.7c1,0.1,1.8,1,1.8,2v3.6   c0,1.1-0.8,1.9-1.8,2V55.7z M64.3,71.8l-5.5,7.1c-1.3,1.5-3.8,3.8-5.3,3.8h-7.1c-1.4,0-4-2.3-5.2-3.7l-5.6-7.1   c-1.3-1.6-2-3.7-2-5.7v-4.3C35,63.2,36.9,64,39,64c3.6,0,6.6-2.4,7.5-5.7c0.1-0.1,0.2-0.1,0.3-0.2c1.7-1.7,4.5-1.7,6.2,0   c0.1,0.1,0.2,0.2,0.3,0.2c0.9,3.3,3.9,5.7,7.5,5.7c2.1,0,4-0.8,5.4-2.2v4.3C66.2,68.2,65.5,70.2,64.3,71.8z"/></g></svg>