<svg xmlns="http://www.w3.org/2000/svg" xmlns:xlink="http://www.w3.org/1999/xlink" version="1.1" x="0px" y="0px" viewBox="0 0 100 125" style="enable-background:new 0 0 100 100;" xml:space="preserve"><g><path d="M50.4,66.8c1,0,1.9,0.6,1.9-0.5s-0.8-1.9-1.9-1.9c-1,0-1.9,0.8-1.9,1.9S49.4,66.8,50.4,66.8z"/><circle cx="41.6" cy="59.7" r="1.9"/><circle cx="59" cy="59.7" r="1.9"/><path d="M52.9,71.5c-0.7,0.1-1.6,0.2-2.5,0.2c-0.9,0-1.7-0.1-2.5-0.2c-1.6-0.2-2.7-0.3-3.5,0.4c-0.4,0.4-0.6,0.9-0.6,1.4   c0,2.1,3.1,5.6,6.5,5.6c3.5,0,6.5-3.5,6.5-5.6c0-0.6-0.2-1.1-0.6-1.4C55.6,71.2,54.4,71.4,52.9,71.5z M50.4,76.4   c-1.7,0-3.2-1.5-3.7-2.5c0.3,0,0.7,0.1,1,0.1c0.8,0.1,1.7,0.2,2.7,0.2c1,0,1.9-0.1,2.7-0.2c0.3,0,0.7-0.1,1-0.1   C53.6,74.9,52.1,76.4,50.4,76.4z"/><path d="M75.2,64.8c1.5-1.6,2.4-4,2.4-6.7c0-4.7-2.6-8.4-6.1-8.6v-3.6c0-8.1-4.6-15.2-11.3-18.7c2.6-1,4.4-3.5,4.4-6.5v-1.1   c0-3.8-3.1-6.9-6.9-6.9H43.2c-3.8,0-6.9,3.1-6.9,6.9v1.1c0,2.9,1.8,5.5,4.4,6.5C34,30.7,29.4,37.8,29.4,45.9v3.6   c-3.4,0.2-6.1,3.9-6.1,8.6c0,2.5,0.8,4.7,2,6.3c-1.7,0.7-2.8,2.3-2.8,4.2c0,1.1,0.4,2.1,1,2.8c-0.6,0.8-1,1.8-1,2.8   c0,2.5,2,4.5,4.5,4.5c2.5,0,4.5-2,4.5-4.5c0-0.4-0.1-0.9-0.2-1.3c0.3,0.5,0.6,0.9,0.9,1.4l6,7.6c0.5,0.6,4.6,5.4,8.5,5.4h7.5   c3.9,0,8-4.8,8.5-5.4l5.4-7c0.3,2.2,2.2,3.8,4.5,3.8c2.5,0,4.5-2,4.5-4.5c0-1.1-0.4-2.1-1-2.8c0.6-0.8,1-1.8,1-2.8   C77.2,67,76.4,65.6,75.2,64.8z M71.5,68.5c0-0.6,0.5-1.1,1.1-1.1c0.6,0,1.1,0.5,1.1,1.1s-0.5,1.1-1.1,1.1   C72,69.7,71.5,69.2,71.5,68.5z M74.1,58.1c0,2.9-1.4,4.9-2.7,5.1V52.9C72.8,53.2,74.1,55.2,74.1,58.1z M54.1,16.1   c0.6,0.9,1.6,3.7,1.6,8.2H45.1c0.1-4.5,1-7.3,1.6-8.2H54.1z M61.2,19.6v1.1c0,1.7-1.2,3.2-2.9,3.5c-0.1-2.6-0.4-5.8-1.4-8.1h0.7   C59.6,16.1,61.2,17.7,61.2,19.6z M39.7,19.6c0-2,1.6-3.5,3.5-3.5h0.7c-0.9,2.3-1.3,5.6-1.4,8.1c-1.6-0.3-2.9-1.8-2.9-3.5V19.6z    M50.4,28.2c9.7,0,17.7,7.9,17.7,17.7v0.7c-3.1-2.8-9.5-7.4-19.5-9c-0.7-0.1-1.3,0.3-1.4,1c0,0.1-2.6,9.9-14.4,10.1v-2.8   C32.8,36.2,40.7,28.2,50.4,28.2z M25.9,68.5c0-0.6,0.5-1.1,1.1-1.1c0.6,0,1.1,0.5,1.1,1.1s-0.5,1.1-1.1,1.1   C26.4,69.7,25.9,69.2,25.9,68.5z M29.4,52.9v10.3c-1.3-0.2-2.7-2.3-2.7-5.1S28.1,53.2,29.4,52.9z M27,75.3c-0.6,0-1.1-0.5-1.1-1.1   s0.5-1.1,1.1-1.1c0.6,0,1.1,0.5,1.1,1.1S27.6,75.3,27,75.3z M30.5,71.4C30.5,71.4,30.5,71.4,30.5,71.4   C30.5,71.4,30.5,71.4,30.5,71.4C30.5,71.4,30.5,71.4,30.5,71.4z M60.1,79.8c-1.1,1.4-4,4.2-5.9,4.2h-7.5c-1.6,0-4.4-2.4-5.8-4.1   l-5.9-7.6c-1.4-1.8-2.2-4-2.2-6.3V51.2c11.1-0.2,15.3-7.9,16.4-10.9c11.6,2.2,17.7,8.6,18.9,9.9v15.7c0,2.3-0.8,4.5-2.2,6.3   L60.1,79.8z M72.6,75.3c-0.6,0-1.1-0.5-1.1-1.1s0.5-1.1,1.1-1.1c0.6,0,1.1,0.5,1.1,1.1S73.2,75.3,72.6,75.3z"/><path d="M46,59.6c0.7,0,1.3-0.6,1.3-1.3c0-3.2-2.6-5.7-5.7-5.7c-3.2,0-5.7,2.6-5.7,5.7c0,0.7,0.6,1.3,1.3,1.3s1.3-0.6,1.3-1.3   c0-1.7,1.4-3.2,3.2-3.2s3.2,1.4,3.2,3.2C44.7,59.1,45.3,59.6,46,59.6z"/><path d="M59,52.6c-3.2,0-5.7,2.6-5.7,5.7c0,0.7,0.6,1.3,1.3,1.3s1.3-0.6,1.3-1.3c0-1.7,1.4-3.2,3.2-3.2c1.7,0,3.2,1.4,3.2,3.2   c0,0.7,0.6,1.3,1.3,1.3s1.3-0.6,1.3-1.3C64.7,55.2,62.2,52.6,59,52.6z"/></g></svg>