<svg xmlns="http://www.w3.org/2000/svg" xmlns:xlink="http://www.w3.org/1999/xlink" version="1.1" x="0px" y="0px" viewBox="-247 370.9 100 125" style="enable-background:new -247 370.9 100 100;" xml:space="preserve"><g><path d="M-185.8,425.6c1.6,0,3-0.6,4.1-1.7c0.6-0.6,0.6-1.5,0-2.1s-1.5-0.6-2.1,0c-1.1,1.1-2.9,1.1-4,0c-0.6-0.6-1.5-0.6-2.1,0   s-0.6,1.5,0,2.1C-188.8,425-187.3,425.6-185.8,425.6z"/><path d="M-172.5,419.7v-7.1c0-10.1-6.1-18.8-14.8-22.7c-0.1-5.3-4.4-9.5-9.7-9.5c-4.9,0-8.9,3.6-9.6,8.3   c-12.1,3.2-21.1,15.3-21.1,29.7v25.1c0,1.1,0.9,2,2,2h6.9c0.1,0.2,7.3,9.5,7.3,9.5c0.5,0.6,5.4,6.3,9.9,6.3h8.9   c4.6,0,9.4-5.7,10-6.4l6.9-8.9c2.2-2.8,3.4-6.3,3.4-9.8v-2.7c3.5-0.3,6.2-3.3,6.2-6.9S-169,420.1-172.5,419.7z M-176.8,409.2   c-8.9-1-15.9-8.2-16.9-17.1C-185,393.7-178.2,400.6-176.8,409.2z M-184.9,410.9h-8.8v-7.7C-191.5,406.5-188.5,409.1-184.9,410.9z    M-197,384.4c2.6,0,4.8,1.7,5.5,4.1c-5.5-1.3-10.1-0.6-10.8-0.6C-201.4,385.8-199.4,384.4-197,384.4z M-214.2,441.2   c-0.9,0.1-1.7,0.2-2.6,0.2h-0.3V422c0-1.1-0.9-2-2-2s-2,0.9-2,2v19.5h-2.7v-23.2c0-14.6,10.6-26.5,23.6-26.5h2.5v28.1   c0,5.9-2.1,11.3-5.6,15.2v-19.2c0-1.1-0.9-2-2-2s-2,0.9-2,2c0,0,0,22.5,0,22.7c-0.9,0.6-1.9,1.1-2.9,1.5v-21.2c0-1.1-0.9-2-2-2   s-2,0.9-2,2V441.2z M-176.4,436.1c0,0,0,4.2-2.6,7.4l-6.9,8.9c-1.3,1.6-4.8,4.9-6.9,4.9h-8.9c-1.9,0-5.2-2.9-6.8-4.8l-5.5-7.2   c7.4-1,13.8-5.9,17.3-12.8v0.8c0,2.2,1.6,4,3.7,4.1c0.1,0,0.2,0,0.3,0c1.1,0,2.1-0.4,2.8-1.2c0.6-0.6,0.6-1.5,0-2.1s-1.5-0.6-2.1,0   c-0.1,0.1-0.4,0.3-0.8,0.3c-0.5,0-0.9-0.6-0.9-1.1V420v-0.2v-5.9h17.3L-176.4,436.1L-176.4,436.1z M-172.5,429.4v-5.6   c1.3,0.3,2.2,1.4,2.2,2.8S-171.2,429.1-172.5,429.4z"/><path d="M-184,435.7c-0.5-0.2-1.1-0.2-1.5,0.1l-13.3,9.6c-0.5,0.3-0.7,0.9-0.6,1.4c0.1,0.5,0.4,1,1,1.2c0.2,0.1,2.7,1,5.7,1   c2,0,4.2-0.4,6-1.8c2.7-2,3.9-5.4,3.6-10.3C-183.2,436.5-183.5,436-184,435.7z M-188.5,444.9c-1.7,1.2-4,1.3-5.8,1.1l8.2-5.9   C-186.4,442.3-187.2,443.9-188.5,444.9z"/></g></svg>