<svg xmlns="http://www.w3.org/2000/svg" xmlns:xlink="http://www.w3.org/1999/xlink" version="1.1" x="0px" y="0px" viewBox="0 0 100 125" style="enable-background:new 0 0 100 100;" xml:space="preserve"><g><path d="M72.2,40.2C72.2,40.2,72.2,40.2,72.2,40.2l0-6.5c0-8.4-6.9-15.3-15.3-15.3h-1.4c-0.1-2.7-2.3-4.9-5-4.9h-0.9   c-2.7,0-5,2.2-5,4.9h-1.4c-8.4,0-15.3,6.9-15.3,15.3v6.5c0,0,0,0,0,0c-3.5,0-6.3,2.8-6.3,6.3v4c0,3.5,2.8,6.3,6.3,6.3c0,0,0,0,0,0   v8.8c0,2.2,0.7,4.3,2.1,6l7.2,9.3c0.5,0.6,4.8,5.7,8.9,5.7H54c4.1,0,8.5-5.1,9-5.7l7.2-9.2c1.3-1.7,2-3.8,2-6v-8.8c0,0,0,0,0,0   c3.5,0,6.3-2.8,6.3-6.3v-4C78.5,43.1,75.6,40.2,72.2,40.2z M40.8,33.2c0-3.9,0-9.2,3-11.1h12.3c3.1,1.8,3.1,7.1,3,11   c-2.6-0.5-5.5-0.8-8.7-0.8c-3.7,0-6.9,0.3-9.7,0.9V33.2z M50.5,36c7.5,0,13.4,1.7,16.2,4.3c-4-0.9-10.3-2.1-16.7-2.1   c-6.2,0-12.3,1.1-16.3,2C36.8,37.7,43,36,50.5,36z M68.5,33.7V37c-1.5-1.2-3.4-2.2-5.6-2.9c0-0.1,0-0.1,0-0.2l0-0.8   c0-3,0-6.9-1.3-10.1C65.6,24.9,68.5,29,68.5,33.7z M49.6,17.2h0.9c0.7,0,1.3,0.5,1.4,1.2h-3.6C48.3,17.7,48.9,17.2,49.6,17.2z    M38.4,23.1c-1.3,3.2-1.3,7.1-1.3,10.1l0,0.8c0,0.1,0,0.2,0,0.4c-2.3,0.8-4.2,1.8-5.6,3v-3.5C31.5,29,34.4,24.9,38.4,23.1z    M27.8,53.1c-1.4,0-2.6-1.2-2.6-2.6v-4c0-1.4,1.2-2.6,2.6-2.6c0,0,0,0,0,0L27.8,53.1C27.8,53.1,27.8,53.1,27.8,53.1z M42.9,80V73   c0-1,0.4-1.9,1.2-2.5l2.6-2.1c0.6-0.5,1.3-0.7,2.1-0.7h2.4c0.7,0,1.5,0.3,2.1,0.7l2.7,2.2c0.8,0.6,1.2,1.5,1.2,2.5V80   c0,0.6-0.2,1.2-0.5,1.7c-1,0.7-1.9,1.1-2.6,1.1H46c-0.7,0-1.7-0.5-2.7-1.2C43.1,81.2,42.9,80.6,42.9,80z M67.2,69.3l-7.1,9.2   c-0.1,0.1-0.2,0.2-0.2,0.3V73c0-1.8-0.8-3.5-2.2-4.7L55,66.2c-1.1-0.9-2.4-1.4-3.8-1.4h-2.4c-1.4,0-2.8,0.5-3.8,1.4l-2.6,2.1   c-1.4,1.1-2.2,2.8-2.2,4.6v5.8c-0.1-0.1-0.1-0.1-0.2-0.2l-7.2-9.2c-0.8-1.1-1.3-2.4-1.3-3.7v-21c3-0.8,10.8-2.7,18.4-2.7   c7.7,0,15.5,1.9,18.5,2.7v21C68.5,66.9,68,68.3,67.2,69.3z M74.8,50.5c0,1.4-1.2,2.6-2.6,2.6c0,0,0,0,0,0v-9.2c0,0,0,0,0,0   c1.4,0,2.6,1.2,2.6,2.6V50.5z"/><path d="M51.1,59.8c-0.2,0.2-0.4,0.3-0.7,0.3c-0.5,0-0.9-0.4-0.9-0.9v-7.4c0-2.6-2.1-4.7-4.6-4.8L37.6,46c-0.8-0.1-1.4,0.4-1.5,1.2   c-0.1,0.8,0.4,1.4,1.2,1.5l7.3,0.9c0.1,0,0.1,0,0.2,0c1.1,0,2,0.9,2,2v7.4c0,2,1.7,3.7,3.7,3.7c1,0,1.9-0.4,2.6-1.1   c0.5-0.5,0.5-1.4,0-2S51.6,59.3,51.1,59.8z"/><path d="M62.4,46L55.1,47c-0.8,0.1-1.3,0.8-1.2,1.5c0.1,0.7,0.7,1.2,1.4,1.2c0.1,0,0.1,0,0.2,0l7.3-0.9c0.8-0.1,1.3-0.8,1.2-1.5   C63.9,46.5,63.2,46,62.4,46z"/><circle cx="40.8" cy="53.8" r="1.6"/><circle cx="59.2" cy="53.8" r="1.6"/><path d="M54.8,74.3c0.5-0.5,0.5-1.4,0-1.9c-0.5-0.5-1.4-0.5-2,0c-0.8,0.7-5,0.7-5.8,0c-0.5-0.5-1.4-0.5-2,0c-0.5,0.5-0.5,1.4,0,2   c0.9,0.9,2.9,1.4,4.8,1.4S53.9,75.2,54.8,74.3z"/><path d="M54.2,27c0-2.3-1.9-4.2-4.2-4.2s-4.2,1.9-4.2,4.2c0,2.3,1.9,4.2,4.2,4.2S54.2,29.3,54.2,27z M50,28.5   c-0.8,0-1.5-0.7-1.5-1.5c0-0.8,0.7-1.5,1.5-1.5s1.5,0.7,1.5,1.5C51.5,27.8,50.8,28.5,50,28.5z"/></g></svg>